<?xml version="1.0" standalone="no"?>
<!DOCTYPE svg PUBLIC "-//W3C//DTD SVG 20010904//EN"
 "http://www.w3.org/TR/2001/REC-SVG-20010904/DTD/svg10.dtd">
<svg version="1.0" xmlns="http://www.w3.org/2000/svg"
 width="675.000000pt" height="777.000000pt" viewBox="0 0 675.000000 777.000000"
 preserveAspectRatio="xMidYMid meet">

<g transform="translate(0.000000,777.000000) scale(0.100000,-0.100000)"
fill="#000000" stroke="none">
<path d="M2760 7449 c-75 -12 -414 -178 -397 -195 2 -2 37 11 78 30 180 85
412 113 566 67 61 -18 156 -97 191 -160 21 -37 41 -111 30 -111 -5 0 -28 13
-51 28 -63 43 -171 90 -256 112 -175 46 -432 10 -625 -87 -92 -46 -258 -158
-344 -231 -37 -32 -87 -70 -112 -84 -25 -14 -73 -50 -106 -80 -257 -225 -299
-257 -414 -305 -56 -23 -79 -27 -165 -27 -81 0 -110 4 -154 22 -65 27 -141 88
-141 112 0 24 -10 50 -20 50 -4 0 -13 -13 -20 -29 -9 -23 -9 -46 0 -102 21
-139 72 -217 180 -273 48 -26 90 -39 132 -44 l63 -7 -76 -62 c-94 -76 -174
-162 -228 -245 -96 -146 -200 -392 -201 -475 0 -36 17 -27 24 12 11 57 117
257 130 244 2 -2 -2 -33 -9 -69 -8 -36 -17 -101 -22 -144 l-8 -80 -63 -43
c-83 -57 -154 -77 -251 -71 -151 9 -218 71 -246 228 -10 60 -12 63 -23 42 -7
-12 -18 -61 -23 -109 -18 -145 16 -248 118 -354 61 -65 160 -119 217 -119 20
0 36 -4 36 -10 0 -5 -7 -10 -14 -10 -8 0 -62 -31 -119 -70 -164 -109 -234
-199 -276 -350 -27 -95 -27 -175 0 -270 24 -88 56 -148 100 -184 42 -36 53
-33 25 9 -91 134 6 353 198 446 112 55 126 52 76 -13 -47 -63 -75 -141 -91
-254 -13 -88 -10 -110 30 -259 10 -38 20 -77 22 -85 7 -28 -82 -62 -179 -67
-99 -6 -147 8 -178 51 -58 82 -71 87 -53 21 15 -55 96 -170 165 -236 111 -105
226 -153 369 -153 l90 -1 -35 -69 c-31 -62 -35 -78 -33 -140 3 -149 90 -292
207 -341 22 -9 37 -11 41 -5 3 6 -6 14 -20 20 -35 13 -65 81 -65 147 0 29 12
89 26 135 28 90 44 118 44 77 0 -39 37 -138 73 -199 29 -47 40 -57 92 -77 32
-12 60 -21 62 -19 2 2 -10 17 -27 34 -27 28 -30 36 -29 94 0 35 6 81 12 102
l12 39 40 -64 c48 -79 102 -138 178 -196 40 -31 57 -51 57 -67 0 -62 -111
-215 -183 -253 -74 -38 -155 -25 -219 35 -43 40 -44 19 -5 -60 71 -143 201
-241 335 -254 53 -5 92 3 214 43 15 4 13 -5 -11 -58 -66 -149 -68 -264 -5
-387 29 -56 53 -87 92 -119 59 -48 102 -61 62 -18 -35 37 -43 111 -19 177 18
52 53 93 69 83 5 -3 23 -30 40 -60 52 -92 179 -185 252 -185 21 0 28 -6 33
-31 9 -38 -2 -114 -21 -150 -22 -43 -62 -69 -105 -69 -25 0 -39 -5 -39 -13 0
-15 91 -76 133 -88 81 -24 198 -2 236 44 19 23 37 21 77 -9 19 -15 48 -29 66
-33 30 -6 28 -9 -91 -85 -135 -87 -311 -246 -376 -341 -21 -30 -39 -55 -40
-55 -19 0 -216 -70 -295 -105 -121 -54 -516 -196 -611 -220 -153 -39 -564
-159 -674 -197 -159 -54 -285 -113 -285 -132 0 -11 16 -7 73 18 90 41 269 103
452 156 77 22 178 52 225 66 47 14 126 36 175 49 106 29 281 86 455 149 212
76 256 94 360 145 56 28 100 44 97 37 -3 -7 -51 -82 -107 -166 -113 -171 -191
-324 -216 -421 -33 -131 -78 -187 -329 -411 -5 -4 0 -8 12 -8 27 0 244 206
285 269 15 25 39 81 53 126 42 139 94 237 247 465 121 180 182 255 308 378 91
90 294 242 322 242 18 0 8 -59 -12 -70 -28 -15 -25 -34 4 -26 21 5 24 2 30
-42 7 -46 6 -48 -36 -82 -65 -52 -132 -123 -248 -263 -58 -69 -108 -126 -112
-126 -4 -1 -2 11 4 25 10 20 9 27 -2 34 -8 5 -18 6 -23 3 -5 -3 -5 -8 1 -12 8
-5 10 -48 3 -82 -1 -3 -23 -34 -51 -70 -27 -35 -50 -68 -50 -74 0 -5 13 6 28
25 15 19 63 75 107 125 44 50 107 124 140 165 33 41 89 104 125 140 l64 65 7
-30 c3 -16 8 -36 10 -44 2 -7 -1 -15 -6 -17 -6 -2 -12 8 -13 23 -2 29 -9 40
-18 30 -4 -3 -2 -19 4 -36 10 -28 7 -33 -154 -194 -157 -158 -199 -194 -133
-114 17 20 27 37 22 37 -15 -1 -68 -81 -65 -99 1 -10 -28 -57 -68 -107 -63
-78 -131 -189 -130 -211 0 -4 15 17 33 48 46 79 95 145 168 225 84 93 322 334
329 334 3 0 6 -8 7 -17 3 -24 19 -99 34 -152 11 -40 10 -45 -8 -60 -24 -18
-40 -61 -24 -61 6 0 18 14 27 32 9 17 25 40 35 51 20 22 22 28 20 62 -1 19 0
19 10 -2 9 -18 6 -29 -21 -68 -44 -65 -123 -233 -153 -331 -47 -148 -71 -311
-68 -451 l1 -63 278 0 277 0 -7 92 c-3 51 -7 123 -7 160 l-1 66 58 40 c201
137 514 407 692 596 313 332 466 520 638 779 148 224 162 247 155 247 -3 0
-33 -22 -67 -48 -175 -139 -357 -255 -649 -416 -283 -156 -455 -214 -600 -201
-155 13 -194 39 -421 283 -247 266 -392 457 -532 702 -121 211 -180 399 -209
660 -8 80 -23 204 -32 275 -19 149 -24 477 -7 513 10 23 13 20 62 -55 49 -74
122 -157 122 -138 0 4 -11 28 -25 52 -35 59 -72 160 -76 207 -5 51 4 54 175
55 118 1 128 0 121 -16 -14 -36 -17 -133 -6 -180 16 -63 63 -134 109 -167 49
-33 106 -35 152 -3 58 39 71 66 77 156 3 44 9 81 13 81 9 0 67 -63 92 -99 25
-36 31 -20 12 30 -25 65 -77 131 -136 176 -72 54 -102 68 -199 95 -113 31
-283 31 -417 0 -51 -12 -98 -23 -104 -25 -20 -4 -21 33 -1 40 20 7 99 69 154
121 l37 34 83 -17 c46 -10 106 -28 133 -41 28 -13 56 -24 63 -24 7 0 46 -13
86 -29 39 -16 87 -35 106 -42 47 -18 112 -88 187 -201 35 -54 70 -98 78 -98 8
0 36 -14 61 -31 25 -17 49 -29 52 -26 14 14 -48 152 -104 230 -32 46 -33 50
-16 62 17 13 17 15 -1 69 -10 30 -35 79 -56 108 -30 44 -50 60 -119 95 -74 38
-337 143 -358 143 -4 0 -14 4 -21 9 -10 6 -3 23 29 71 103 155 174 353 209
583 6 41 21 85 36 110 56 91 175 195 301 263 57 31 73 44 73 62 0 26 2 27 43
5 18 -9 37 -18 44 -19 6 -1 22 -11 34 -23 28 -26 39 -27 39 -1 0 11 7 20 15
20 8 0 15 -7 15 -15 0 -22 9 -19 68 21 47 31 133 74 150 74 3 0 -11 -17 -31
-38 -42 -43 -40 -59 5 -36 27 14 30 14 49 -8 48 -56 78 -110 112 -200 31 -81
38 -114 43 -205 6 -102 4 -116 -31 -258 -37 -147 -38 -152 -32 -290 6 -152 24
-240 62 -317 29 -57 32 -76 11 -59 -17 14 -41 5 -70 -28 -13 -15 -17 -29 -13
-51 8 -39 -1 -39 -14 0 -12 32 -29 41 -29 14 0 -8 5 -25 11 -37 12 -21 11 -21
-8 -4 -29 25 -38 21 -18 -10 11 -19 3 -15 -25 15 -23 24 -44 41 -47 38 -8 -8
35 -64 71 -91 34 -26 71 -36 48 -13 -7 7 -12 18 -12 26 0 9 11 5 32 -13 25
-21 38 -25 62 -21 17 4 49 9 70 13 l40 6 -23 -34 c-12 -19 -31 -52 -42 -74
-21 -40 -21 -41 -2 -75 24 -44 83 -76 112 -61 11 6 66 63 123 127 95 108 108
118 192 159 67 33 94 42 107 34 25 -13 33 -11 19 5 -10 12 -1 20 53 45 108 51
230 81 324 82 l84 1 95 -91 c81 -78 109 -98 199 -141 58 -27 112 -50 120 -50
7 0 17 -5 20 -10 4 -6 7 -84 6 -173 0 -187 -17 -272 -76 -389 -20 -39 -35 -77
-33 -85 5 -24 237 222 302 321 74 111 199 274 234 303 33 28 71 29 120 4 57
-29 77 -76 102 -239 19 -127 20 -155 10 -239 -24 -202 -68 -271 -353 -563
-186 -190 -201 -200 -294 -200 -24 0 -66 9 -95 20 -29 11 -61 20 -70 20 -24 0
-62 -54 -99 -140 -32 -76 -70 -149 -119 -230 -31 -50 -46 -90 -33 -90 4 0 41
32 82 71 63 61 73 67 67 44 -4 -15 -16 -97 -27 -184 -11 -86 -27 -208 -35
-271 -23 -175 -29 -534 -11 -649 l14 -94 -78 -87 c-42 -48 -171 -176 -286
-286 -114 -109 -292 -282 -395 -383 -169 -166 -187 -188 -193 -225 -4 -22 -9
-49 -12 -60 -3 -11 -1 -16 5 -12 5 3 15 28 22 56 11 46 24 62 154 188 77 76
220 213 316 303 409 385 641 653 767 886 24 43 43 88 43 100 0 31 -52 78 -135
121 -58 31 -71 42 -73 65 -2 19 -9 27 -23 27 -10 0 -19 -7 -19 -15 0 -8 7 -15
15 -15 8 0 15 -4 15 -10 0 -5 -7 -10 -15 -10 -25 0 -17 -30 8 -31 12 0 58 -19
102 -42 104 -55 112 -72 67 -162 -18 -36 -44 -84 -58 -107 l-27 -42 -12 25
c-7 13 -23 54 -35 89 -11 36 -27 79 -35 95 -7 17 -18 43 -24 58 -11 28 -31 37
-31 13 0 -32 60 -207 98 -282 14 -29 14 -33 -8 -62 l-23 -31 -30 57 c-16 31
-45 79 -64 105 l-34 49 12 161 c6 88 14 168 18 178 6 18 18 16 156 -28 113
-36 207 -100 240 -164 8 -15 19 -78 25 -140 17 -176 88 -470 136 -561 12 -23
18 -57 18 -113 1 -72 -5 -95 -51 -225 -28 -80 -61 -167 -73 -195 -29 -67 -130
-330 -130 -338 0 -4 4 -7 9 -7 5 0 15 17 22 38 7 20 50 131 97 247 90 224 131
344 132 385 1 44 17 0 24 -65 22 -203 24 -359 5 -381 -8 -10 -9 -18 -2 -25 15
-15 4 -49 -15 -49 -14 0 -14 -1 0 -12 13 -11 15 -23 8 -73 -8 -56 -7 -75 5
-63 8 8 36 269 38 355 1 46 4 83 7 83 11 0 209 -89 236 -106 62 -39 152 -111
222 -177 80 -75 205 -161 225 -154 7 2 -15 18 -49 35 -54 27 -130 89 -234 190
-57 55 -188 137 -290 182 -52 22 -100 46 -106 53 -6 7 -16 62 -23 124 -13 130
-53 319 -76 364 -9 17 -13 30 -8 28 22 -10 245 -165 303 -210 36 -29 128 -82
205 -120 77 -37 169 -84 205 -103 64 -34 522 -256 693 -334 48 -22 87 -36 87
-31 0 6 -78 48 -172 93 -95 46 -326 159 -513 253 -187 93 -352 173 -367 176
-15 4 -67 39 -115 78 -120 98 -300 219 -324 219 -12 0 -15 8 -42 110 -31 115
-53 240 -62 340 -10 122 -18 142 -90 208 -35 33 -80 66 -99 73 -44 16 -46 29
-6 29 66 0 175 78 227 162 l37 61 13 -29 c26 -63 8 -202 -30 -229 -30 -21 -15
-29 27 -15 43 14 126 104 157 169 45 95 63 223 39 285 -5 14 -8 26 -6 26 2 0
29 -15 60 -34 118 -71 233 -74 381 -10 64 28 105 53 143 90 66 64 67 75 3 67
-68 -8 -160 25 -233 82 -50 39 -81 86 -66 100 3 3 31 0 64 -6 33 -6 101 -9
154 -6 86 5 102 10 178 48 111 56 212 170 212 239 0 25 -17 26 -25 1 -8 -27
-67 -52 -134 -58 -99 -9 -220 53 -252 129 -9 23 -10 33 -2 35 39 13 149 97
213 162 61 62 81 90 108 154 18 43 38 100 44 128 6 27 16 48 22 46 26 -9 69
-120 87 -224 17 -105 17 -107 -2 -134 -36 -51 -16 -54 43 -6 69 55 128 213
128 344 0 68 -26 169 -51 199 -6 8 -7 14 -2 14 20 0 131 -127 158 -180 25 -49
27 -59 17 -95 -6 -22 -9 -42 -6 -44 19 -20 68 120 60 171 -19 119 -98 240
-208 321 l-72 52 61 7 c62 7 167 51 216 90 l28 23 0 205 c0 226 4 214 -63 197
-27 -7 -28 -6 -53 80 -54 182 -103 270 -214 379 -73 72 -72 78 8 90 80 12 157
-1 217 -38 31 -18 65 -45 76 -61 26 -36 34 -29 32 28 -1 38 -11 60 -48 113
-25 37 -65 83 -88 102 -50 41 -184 110 -215 110 -35 0 -36 16 -2 31 48 19 135
131 160 206 17 51 20 82 17 156 -3 80 -8 101 -39 167 -40 83 -73 129 -85 117
-4 -4 3 -26 17 -50 32 -57 34 -152 3 -194 -49 -67 -168 -97 -291 -74 -100 18
-108 24 -136 105 -14 39 -35 116 -46 171 -27 121 -104 319 -169 429 -32 56
-81 115 -157 192 -143 145 -248 220 -470 339 -49 26 -97 53 -105 60 -8 7 -96
61 -195 121 -344 206 -576 286 -830 286 -139 -1 -279 -31 -371 -81 -64 -35
-65 -29 -7 23 87 78 264 122 393 98 52 -10 70 -9 58 3 -15 15 -181 55 -228 55
-88 0 -201 -35 -283 -87 l-29 -18 -26 35 c-73 97 -173 162 -357 233 -80 30
-101 34 -185 35 -52 0 -120 -4 -150 -9z m1192 -2909 c43 -64 91 -116 205 -221
l82 -76 -137 -6 c-101 -4 -155 -11 -205 -27 -38 -12 -71 -20 -73 -18 -2 3 -8
65 -13 139 -10 140 -7 253 9 354 6 33 10 64 10 70 0 5 19 -29 43 -75 23 -47
59 -110 79 -140z m-1846 73 c-3 -10 -10 -40 -16 -68 -5 -27 -20 -86 -33 -130
-17 -61 -27 -80 -40 -79 -9 0 -35 1 -57 2 l-39 2 49 66 c28 36 67 101 88 144
20 44 41 80 45 80 5 0 6 -8 3 -17z m1468 -335 c17 -42 39 -85 50 -97 18 -20
18 -20 -5 -29 -34 -14 -133 -42 -135 -39 -1 1 -4 34 -7 73 -5 62 4 144 18 183
11 28 49 -16 79 -91z m-938 -490 c8 -16 12 -28 10 -28 -7 0 -66 87 -66 97 1
11 37 -35 56 -69z m-199 -14 c11 -17 11 -23 -1 -40 -12 -15 -18 -17 -33 -8
-23 14 -28 41 -12 60 15 18 28 14 46 -12z m2189 -2516 c13 -26 24 -52 24 -58
0 -7 -17 -32 -37 -57 l-38 -46 -7 34 c-4 19 -10 84 -13 144 l-6 110 26 -40
c14 -22 37 -61 51 -87z m-2168 -68 c0 -21 -1 -20 -9 8 -5 17 -14 32 -20 32 -6
0 -8 -9 -5 -20 3 -11 9 -29 12 -40 3 -11 1 -20 -3 -20 -5 0 -14 18 -19 40 -10
35 -9 41 10 54 19 12 22 12 28 -8 3 -11 6 -32 6 -46z m36 -154 c15 -59 23
-113 19 -119 -6 -10 -51 174 -52 217 -2 38 8 9 33 -98z m-76 -41 l1 -20 -9 20
c-5 11 -8 31 -8 45 l0 25 8 -25 c4 -14 8 -34 8 -45z m39 -27 c-3 -8 -6 -5 -6
6 -1 11 2 17 5 13 3 -3 4 -12 1 -19z m-18 -48 c0 -9 -4 -8 -9 5 -5 11 -9 27
-9 35 0 9 4 8 9 -5 5 -11 9 -27 9 -35z"/>
<path d="M4021 4019 c-38 -15 -22 -17 64 -8 113 12 121 17 35 17 -41 0 -86 -4
-99 -9z"/>
<path d="M3900 3881 c-189 -37 -258 -91 -336 -264 -19 -44 -9 -63 15 -27 39
59 74 88 162 132 52 26 107 50 123 54 26 6 28 5 20 -12 -16 -34 -10 -165 10
-219 38 -100 82 -135 168 -135 80 0 172 78 198 168 18 59 24 166 11 190 -9 17
-9 22 1 22 15 0 158 -39 170 -46 8 -5 -19 -80 -62 -170 -17 -34 -30 -65 -30
-69 0 -10 102 102 166 182 30 37 54 75 54 84 0 19 -144 84 -220 99 -152 31
-327 35 -450 11z m303 -123 c15 -23 -6 -68 -33 -68 -28 0 -46 40 -30 69 13 26
47 25 63 -1z"/>
<path d="M5302 3650 c-53 -44 -172 -185 -172 -203 0 -15 31 -6 42 13 17 27 31
25 70 -9 18 -16 63 -42 99 -58 65 -30 68 -33 94 -108 7 -19 7 -19 16 3 20 51
22 206 5 292 -10 46 -22 92 -27 102 -18 33 -62 22 -127 -32z"/>
<path d="M2170 3432 c0 -28 102 -45 189 -31 105 16 98 29 -14 28 -55 -1 -117
2 -137 6 -25 5 -38 3 -38 -3z"/>
<path d="M5067 3362 c-53 -58 -62 -153 -22 -214 l28 -42 -31 -25 c-17 -14 -56
-45 -87 -69 -71 -55 -126 -158 -99 -185 4 -4 32 21 64 55 l56 62 100 4 c60 3
107 10 120 18 60 40 102 202 71 275 -17 40 -85 101 -140 124 -45 18 -41 19
-60 -3z"/>
<path d="M2824 3343 c-10 -36 -167 -349 -200 -400 -46 -72 -62 -133 -43 -160
17 -25 93 -83 173 -134 60 -38 60 -38 71 -16 14 26 -11 82 -77 180 l-39 58 46
100 c50 109 80 216 91 322 5 48 4 67 -5 67 -6 0 -14 -8 -17 -17z"/>
<path d="M3887 3353 c-9 -14 190 -38 236 -29 60 11 54 26 -10 26 -32 0 -94 3
-139 6 -50 4 -83 3 -87 -3z"/>
<path d="M4972 2840 c-42 -30 -59 -60 -24 -41 19 10 79 71 70 71 -3 0 -24 -14
-46 -30z"/>
<path d="M3030 2703 c-111 -17 -89 -29 50 -29 66 1 120 4 120 9 0 21 -92 33
-170 20z"/>
<path d="M2520 2319 c0 -26 88 -113 168 -166 91 -59 223 -113 280 -113 53 0
33 24 -28 33 -74 10 -155 45 -232 100 -52 37 -65 52 -61 67 3 11 0 20 -6 20
-6 0 -11 5 -11 11 0 13 1015 -2 1028 -16 11 -11 -27 -37 -114 -80 -112 -54
-241 -92 -343 -103 -45 -4 -76 -12 -79 -19 -11 -35 219 5 365 64 36 14 103 48
149 74 125 72 136 81 125 92 -7 7 -131 10 -353 8 -393 -2 -846 13 -862 29 -13
13 -26 13 -26 -1z"/>
<path d="M2858 2173 c7 -3 16 -2 19 1 4 3 -2 6 -13 5 -11 0 -14 -3 -6 -6z"/>
<path d="M2887 1861 l61 -61 66 0 c91 0 208 43 191 70 -2 4 -46 5 -97 2 -77
-4 -107 -1 -168 18 -41 12 -84 24 -95 27 -12 3 4 -19 42 -56z"/>
<path d="M4597 1731 c-3 -12 1 -22 9 -25 10 -4 14 2 14 19 0 30 -16 33 -23 6z"/>
<path d="M4650 1637 c0 -7 9 -18 19 -24 16 -10 20 -9 24 7 3 11 -1 21 -10 24
-23 9 -33 7 -33 -7z"/>
<path d="M4816 1570 c7 -8 14 -24 16 -35 2 -13 6 -16 11 -8 4 6 -2 22 -15 35
-13 13 -18 17 -12 8z"/>
<path d="M4680 1556 c0 -2 7 -7 16 -10 8 -3 12 -2 9 4 -6 10 -25 14 -25 6z"/>
<path d="M4781 1543 c7 -12 15 -20 18 -17 3 2 -3 12 -13 22 -17 16 -18 16 -5
-5z"/>
<path d="M4750 1485 c7 -9 15 -13 17 -11 7 7 -7 26 -19 26 -6 0 -6 -6 2 -15z"/>
<path d="M2380 1445 c-8 -9 -8 -15 -2 -15 12 0 26 19 19 26 -2 2 -10 -2 -17
-11z"/>
<path d="M2345 1420 c-3 -5 -1 -10 4 -10 6 0 11 5 11 10 0 6 -2 10 -4 10 -3 0
-8 -4 -11 -10z"/>
<path d="M4722 1408 c2 -6 10 -14 16 -16 7 -2 10 2 6 12 -7 18 -28 22 -22 4z"/>
<path d="M2309 1393 c-13 -16 -12 -17 4 -4 16 13 21 21 13 21 -2 0 -10 -8 -17
-17z"/>
<path d="M4675 1290 c3 -5 11 -10 16 -10 6 0 7 5 4 10 -3 6 -11 10 -16 10 -6
0 -7 -4 -4 -10z"/>
<path d="M2152 1228 c2 -6 10 -14 16 -16 7 -2 10 2 6 12 -7 18 -28 22 -22 4z"/>
<path d="M2280 1216 c0 -8 5 -18 10 -21 6 -3 10 1 10 9 0 8 -4 18 -10 21 -5 3
-10 -1 -10 -9z"/>
<path d="M2065 1190 c-3 -5 -1 -10 4 -10 6 0 11 5 11 10 0 6 -2 10 -4 10 -3 0
-8 -4 -11 -10z"/>
<path d="M2170 1184 c0 -8 5 -12 10 -9 6 3 10 10 10 16 0 5 -4 9 -10 9 -5 0
-10 -7 -10 -16z"/>
<path d="M2225 1160 c-3 -6 1 -7 9 -4 18 7 21 14 7 14 -6 0 -13 -4 -16 -10z"/>
<path d="M4797 1138 c-13 -18 -91 -125 -174 -238 -82 -113 -189 -254 -236
-315 -48 -60 -116 -146 -151 -190 -148 -186 -226 -300 -226 -328 0 -7 16 15
36 48 20 33 77 111 128 175 222 278 307 390 556 730 75 102 106 150 96 150 -3
0 -16 -15 -29 -32z"/>
<path d="M2330 1140 c-9 -6 -10 -10 -3 -10 6 0 15 5 18 10 8 12 4 12 -15 0z"/>
<path d="M2150 1095 c-7 -9 -8 -15 -2 -15 5 0 12 7 16 15 3 8 4 15 2 15 -2 0
-9 -7 -16 -15z"/>
<path d="M2207 991 c-10 -14 -10 -14 4 -4 9 7 18 10 21 7 3 -3 8 -1 12 4 9 16
-24 9 -37 -7z"/>
<path d="M1885 970 c-3 -5 -1 -10 4 -10 6 0 11 5 11 10 0 6 -2 10 -4 10 -3 0
-8 -4 -11 -10z"/>
<path d="M2076 963 c-6 -14 -5 -15 5 -6 7 7 10 15 7 18 -3 3 -9 -2 -12 -12z"/>
<path d="M2150 925 c-7 -9 -11 -18 -8 -20 3 -3 11 1 18 10 7 9 11 18 8 20 -3
3 -11 -1 -18 -10z"/>
<path d="M1979 904 c-17 -20 -144 -124 -182 -148 -34 -21 -59 -41 -101 -80
-45 -41 56 30 228 160 48 37 81 72 74 79 -3 3 -11 -2 -19 -11z"/>
<path d="M2370 857 c-15 -12 -73 -107 -224 -368 -11 -19 -25 -48 -31 -65 -6
-17 -36 -70 -65 -118 -29 -47 -51 -89 -48 -92 3 -3 28 32 56 78 28 46 55 88
61 94 5 7 32 52 59 100 27 49 82 143 121 209 39 66 71 127 71 135 0 9 5 21 12
28 15 15 8 15 -12 -1z"/>
<path d="M4872 728 c-44 -79 -90 -163 -102 -188 -13 -25 -73 -126 -133 -225
-145 -236 -189 -315 -173 -315 7 0 18 11 24 26 7 14 53 93 103 177 50 84 106
177 124 207 18 30 73 132 122 225 117 221 124 235 119 235 -2 0 -40 -64 -84
-142z"/>
<path d="M2222 835 c-6 -14 -8 -25 -3 -25 8 0 23 41 17 47 -1 2 -8 -8 -14 -22z"/>
<path d="M2159 823 c-13 -16 -12 -17 4 -4 16 13 21 21 13 21 -2 0 -10 -8 -17
-17z"/>
<path d="M1765 810 c-3 -5 -1 -10 4 -10 6 0 11 5 11 10 0 6 -2 10 -4 10 -3 0
-8 -4 -11 -10z"/>
<path d="M1475 706 c-337 -79 -525 -137 -525 -162 0 -19 6 -18 80 11 52 20
489 133 588 151 23 5 32 35 10 33 -7 0 -76 -15 -153 -33z"/>
<path d="M2050 711 c0 -34 32 -164 50 -201 l21 -45 -6 40 c-4 22 -11 44 -16
49 -5 6 -9 24 -9 41 0 17 -5 36 -11 42 -6 6 -11 27 -12 47 -1 20 -5 36 -9 36
-4 0 -8 -4 -8 -9z"/>
<path d="M5214 711 c3 -4 34 -18 68 -31 144 -52 246 -117 378 -243 93 -88 118
-105 50 -33 -97 101 -225 201 -315 245 -81 40 -190 77 -181 62z"/>
<path d="M2085 690 c3 -5 8 -10 11 -10 2 0 4 5 4 10 0 6 -5 10 -11 10 -5 0 -7
-4 -4 -10z"/>
<path d="M2130 674 c0 -8 5 -12 10 -9 6 4 8 11 5 16 -9 14 -15 11 -15 -7z"/>
<path d="M2215 670 c-10 -11 -13 -20 -7 -20 6 0 16 9 22 20 6 11 9 20 7 20 -2
0 -12 -9 -22 -20z"/>
<path d="M2320 670 c0 -5 5 -10 10 -10 6 0 10 5 10 10 0 6 -4 10 -10 10 -5 0
-10 -4 -10 -10z"/>
<path d="M1516 654 c-3 -9 -2 -23 2 -31 7 -11 9 -6 10 16 1 34 -3 39 -12 15z"/>
<path d="M1570 660 c0 -5 7 -7 15 -4 8 4 15 8 15 10 0 2 -7 4 -15 4 -8 0 -15
-4 -15 -10z"/>
<path d="M2095 650 c3 -5 8 -10 11 -10 2 0 4 5 4 10 0 6 -5 10 -11 10 -5 0 -7
-4 -4 -10z"/>
<path d="M890 646 c0 -2 7 -7 16 -10 8 -3 12 -2 9 4 -6 10 -25 14 -25 6z"/>
<path d="M1440 640 c0 -5 5 -10 10 -10 6 0 10 5 10 10 0 6 -4 10 -10 10 -5 0
-10 -4 -10 -10z"/>
<path d="M3725 569 c-15 -29 -50 -89 -78 -133 -99 -158 -191 -316 -183 -316 3
0 30 42 62 93 31 50 78 124 104 162 52 78 134 234 126 242 -2 3 -17 -19 -31
-48z"/>
<path d="M1530 594 c-34 -15 -110 -38 -180 -54 -39 -9 -353 -91 -440 -115 -30
-8 -67 -15 -81 -15 -15 0 -29 -4 -31 -8 -2 -4 -40 -16 -84 -25 -134 -29 -659
-194 -705 -223 -5 -3 -9 -11 -9 -19 0 -11 15 -8 67 12 116 43 380 129 553 178
91 26 170 51 175 55 14 11 125 19 119 8 -3 -4 -11 -8 -17 -8 -14 0 -28 -36
-93 -228 -49 -146 -50 -152 -31 -152 8 0 23 33 37 82 31 107 77 230 89 237 5
3 18 25 30 47 19 37 28 43 79 57 108 30 275 67 280 62 3 -2 0 -11 -7 -18 -13
-16 -85 -187 -141 -332 -21 -55 -41 -108 -45 -117 -5 -12 -2 -18 8 -18 9 0 26
32 47 88 92 246 173 422 195 422 8 0 51 12 97 27 46 15 88 27 94 27 7 -1 17 9
23 22 6 13 10 24 8 24 -1 -1 -18 -8 -37 -16z"/>
<path d="M2175 600 c-3 -5 -1 -10 4 -10 6 0 11 5 11 10 0 6 -2 10 -4 10 -3 0
-8 -4 -11 -10z"/>
<path d="M5162 580 c0 -19 2 -27 5 -17 2 9 2 25 0 35 -3 9 -5 1 -5 -18z"/>
<path d="M1527 543 c-4 -3 -7 -11 -7 -17 0 -6 5 -5 12 2 6 6 9 14 7 17 -3 3
-9 2 -12 -2z"/>
<path d="M905 530 c-3 -5 -1 -10 4 -10 6 0 11 5 11 10 0 6 -2 10 -4 10 -3 0
-8 -4 -11 -10z"/>
<path d="M5150 498 c-12 -22 -12 -22 6 -6 10 10 15 20 12 24 -4 3 -12 -5 -18
-18z"/>
<path d="M695 484 c-49 -7 -135 -26 -190 -43 -129 -38 -338 -124 -343 -141 -6
-18 22 -10 163 47 132 54 274 93 438 119 179 29 122 44 -68 18z"/>
<path d="M890 490 c0 -5 5 -10 10 -10 6 0 10 5 10 10 0 6 -4 10 -10 10 -5 0
-10 -4 -10 -10z"/>
<path d="M2220 440 c0 -5 5 -10 11 -10 5 0 7 5 4 10 -3 6 -8 10 -11 10 -2 0
-4 -4 -4 -10z"/>
<path d="M3744 363 c-93 -120 -102 -143 -15 -38 74 91 93 116 88 121 -3 3 -35
-34 -73 -83z"/>
<path d="M5109 425 c-3 -5 -3 -35 1 -65 6 -43 7 -47 9 -19 1 25 8 42 24 53
l22 17 -22 -4 c-15 -3 -23 1 -25 12 -2 9 -6 12 -9 6z"/>
<path d="M2222 409 c-19 -7 -21 -11 -10 -23 7 -8 16 -12 19 -10 6 3 20 45 16
43 -1 0 -12 -4 -25 -10z"/>
<path d="M65 380 c-3 -5 -2 -10 4 -10 5 0 13 5 16 10 3 6 2 10 -4 10 -5 0 -13
-4 -16 -10z"/>
<path d="M2144 355 c4 -16 12 -34 17 -40 7 -7 8 0 3 20 -3 17 -11 35 -17 40
-6 7 -7 0 -3 -20z"/>
<path d="M25 340 c-3 -5 1 -10 10 -10 9 0 13 5 10 10 -3 6 -8 10 -10 10 -2 0
-7 -4 -10 -10z"/>
<path d="M1655 334 c-16 -8 -59 -44 -95 -79 -36 -35 -121 -107 -189 -160 -72
-55 -116 -95 -105 -95 11 0 39 17 64 36 25 20 79 62 120 92 41 31 110 89 152
129 42 40 82 73 88 73 26 0 50 -23 78 -78 l31 -59 -47 -36 c-26 -21 -76 -64
-112 -97 -50 -46 -60 -59 -45 -60 12 0 44 23 75 55 30 30 57 55 61 55 4 0 1
-17 -7 -37 -17 -50 -17 -73 0 -73 16 0 39 89 30 114 -3 8 7 22 25 35 l29 21
30 -52 c55 -100 67 -118 80 -118 9 0 3 18 -18 53 -17 28 -55 100 -85 159 -70
136 -95 156 -160 122z"/>
<path d="M5147 324 c-3 -4 1 -13 9 -21 18 -18 27 -13 18 11 -6 17 -16 20 -27
10z"/>
<path d="M2216 311 c-4 -7 -5 -15 -2 -18 9 -9 19 4 14 18 -4 11 -6 11 -12 0z"/>
<path d="M265 300 c3 -5 8 -10 11 -10 2 0 4 5 4 10 0 6 -5 10 -11 10 -5 0 -7
-4 -4 -10z"/>
<path d="M5128 150 c2 -80 6 -147 9 -149 2 -3 9 1 15 7 7 7 8 12 3 12 -12 0
-14 155 -2 166 4 4 7 12 7 17 0 6 -3 7 -7 3 -5 -4 -13 14 -19 41 -10 40 -11
25 -6 -97z"/>
<path d="M2170 265 c0 -19 31 -105 40 -110 4 -3 2 16 -6 42 -8 26 -12 54 -9
63 3 11 0 17 -10 17 -8 0 -15 -6 -15 -12z"/>
<path d="M5157 260 c3 -11 9 -17 15 -14 5 3 4 12 -3 20 -16 19 -18 18 -12 -6z"/>
<path d="M522 258 c-17 -22 -80 -253 -70 -257 15 -5 23 11 52 122 15 56 32
112 37 125 9 24 -2 30 -19 10z"/>
<path d="M1405 250 c-3 -5 -1 -10 4 -10 6 0 11 5 11 10 0 6 -2 10 -4 10 -3 0
-8 -4 -11 -10z"/>
<path d="M5910 240 c14 -11 45 -27 70 -36 25 -9 71 -28 103 -42 31 -14 60 -23
62 -20 5 5 -36 24 -175 82 -58 24 -77 29 -60 16z"/>
<path d="M1569 193 c-13 -16 -12 -17 4 -4 16 13 21 21 13 21 -2 0 -10 -8 -17
-17z"/>
<path d="M1645 200 c4 -6 11 -8 16 -5 14 9 11 15 -7 15 -8 0 -12 -5 -9 -10z"/>
<path d="M1610 170 c0 -5 5 -10 10 -10 6 0 10 5 10 10 0 6 -4 10 -10 10 -5 0
-10 -4 -10 -10z"/>
<path d="M180 161 c0 -5 5 -13 10 -16 6 -3 10 -2 10 4 0 5 -4 13 -10 16 -5 3
-10 2 -10 -4z"/>
<path d="M1500 145 c-7 -8 -8 -15 -2 -15 5 0 15 7 22 15 7 8 8 15 2 15 -5 0
-15 -7 -22 -15z"/>
<path d="M405 140 c-3 -5 -1 -10 4 -10 6 0 11 5 11 10 0 6 -2 10 -4 10 -3 0
-8 -4 -11 -10z"/>
<path d="M1676 134 c-11 -7 -18 -16 -15 -18 2 -2 13 2 23 10 11 7 18 16 15 18
-2 2 -13 -2 -23 -10z"/>
<path d="M6207 116 c28 -13 62 -27 75 -30 12 -4 0 5 -29 18 -28 13 -62 27 -75
30 -12 4 0 -5 29 -18z"/>
<path d="M165 118 c-5 -16 -24 -100 -25 -110 0 -5 7 -8 15 -8 8 0 15 8 16 18
0 9 4 38 8 65 4 26 4 47 -1 47 -5 0 -11 -6 -13 -12z"/>
<path d="M1250 104 c0 -8 5 -12 10 -9 6 3 10 10 10 16 0 5 -4 9 -10 9 -5 0
-10 -7 -10 -16z"/>
<path d="M1530 109 c0 -5 9 -9 20 -9 11 0 20 2 20 4 0 2 -9 6 -20 9 -11 3 -20
1 -20 -4z"/>
<path d="M3443 98 c-15 -20 -25 -38 -20 -38 3 0 12 11 21 25 17 26 16 35 -1
13z"/>
<path d="M3700 91 c-23 -6 -70 -62 -70 -82 0 -21 26 -6 40 24 14 31 17 32 70
30 43 -2 65 -10 98 -33 58 -41 74 -38 32 5 -29 30 -113 69 -139 64 -3 -1 -17
-4 -31 -8z"/>
<path d="M1500 52 c0 -5 7 -15 15 -22 8 -7 15 -9 15 -6 0 4 -7 14 -15 22 -8 9
-15 11 -15 6z"/>
<path d="M1790 30 c0 -5 5 -10 11 -10 5 0 7 5 4 10 -3 6 -8 10 -11 10 -2 0 -4
-4 -4 -10z"/>
<path d="M6420 30 c8 -5 20 -10 25 -10 6 0 3 5 -5 10 -8 5 -19 10 -25 10 -5 0
-3 -5 5 -10z"/>
<path d="M2030 10 c-8 -5 -10 -10 -5 -10 6 0 17 5 25 10 8 5 11 10 5 10 -5 0
-17 -5 -25 -10z"/>
<path d="M3770 10 c0 -5 5 -10 11 -10 5 0 7 5 4 10 -3 6 -8 10 -11 10 -2 0 -4
-4 -4 -10z"/>
</g>
</svg>
